<?xml version="1.0" encoding="utf-8"?>
<!-- Generator: Adobe Illustrator 25.4.1, SVG Export Plug-In . SVG Version: 6.00 Build 0)  -->
<svg version="1.1" id="Layer_1" xmlns="http://www.w3.org/2000/svg" xmlns:xlink="http://www.w3.org/1999/xlink" x="0px" y="0px"
	 viewBox="0 0 22.37 19.92" style="enable-background:new 0 0 22.37 19.92;" xml:space="preserve">
<style type="text/css">
	.st0{enable-background:new    ;}
	.st1{fill:#9DB3CA;}
</style>
<g class="st0">
	<path class="st1" d="M9.77,6.79c0,2.22-0.44,4.23-1.31,6.04c-0.88,1.81-2.2,3.44-3.97,4.9c-1.77,1.46-2.9,2.19-3.4,2.19
		c-0.3,0-0.56-0.16-0.77-0.47C0.1,19.13,0,18.85,0,18.62l0.1-0.28c3.83-2.45,5.74-5.39,5.74-8.82c0-1.07-0.19-1.61-0.56-1.61
		L4.87,8.02c-0.28,0.12-0.51,0.17-0.7,0.17c-1.1,0-2.01-0.4-2.75-1.21c-0.73-0.8-1.1-1.78-1.1-2.92c0-1.12,0.4-2.08,1.19-2.87
		C2.3,0.4,3.25,0,4.38,0c1.56,0,2.85,0.64,3.87,1.92C9.26,3.21,9.77,4.83,9.77,6.79z M22.37,6.79c0,2.22-0.44,4.23-1.31,6.04
		c-0.88,1.81-2.2,3.44-3.97,4.9c-1.77,1.46-2.91,2.19-3.4,2.19c-0.3,0-0.57-0.16-0.79-0.49c-0.22-0.33-0.33-0.62-0.33-0.86
		c0-0.15,0.05-0.24,0.14-0.29c3.83-2.43,5.74-5.35,5.74-8.76c0-1.07-0.19-1.6-0.56-1.6l-0.42,0.11c-0.28,0.12-0.51,0.17-0.7,0.17
		c-1.1,0-2.01-0.4-2.75-1.21c-0.73-0.8-1.1-1.78-1.1-2.92c0-1.12,0.4-2.08,1.19-2.87C14.9,0.4,15.85,0,16.98,0
		c1.56,0,2.85,0.64,3.87,1.92C21.86,3.21,22.37,4.83,22.37,6.79z"/>
</g>
</svg>
